<svg width="62" height="62" viewBox="0 0 62 62" fill="none" xmlns="http://www.w3.org/2000/svg">
<rect width="62" height="62" rx="16" fill="white"/>
<g clip-path="url(#clip0_6_1935)">
<path d="M43.4598 32.6274C43.408 26.7474 48.1796 23.9245 48.3954 23.7869C45.7103 19.7898 41.5317 19.2422 40.0409 19.1778C36.4867 18.8118 33.1023 21.3067 31.3008 21.3067C29.4992 21.3067 26.7134 19.2305 23.7665 19.2891C19.8871 19.3477 16.3156 21.5819 14.3184 25.1134C10.2922 32.2203 13.291 42.7534 17.2107 48.522C19.1302 51.342 21.4152 54.5191 24.4197 54.402C27.3149 54.2849 28.4085 52.4986 31.9023 52.4986C35.396 52.4986 36.3802 54.402 39.4394 54.3464C42.5504 54.2849 44.5247 51.4649 46.4298 48.6362C48.6285 45.3624 49.5379 42.194 49.5897 42.0271C49.5207 41.9979 43.5231 39.6582 43.4598 32.6274Z" fill="#222222"/>
<path d="M37.7127 15.1888C39.3071 13.2239 40.3834 10.4918 40.0869 7.76862C37.7902 7.86242 35.0103 9.32649 33.3613 11.2914C31.8849 13.0279 30.5899 15.8097 30.9408 18.4774C33.5023 18.6795 36.1182 17.1508 37.7127 15.1888Z" fill="#222222"/>
</g>
<defs>
<clipPath id="clip0_6_1935">
<rect width="37.2" height="46.5" fill="white" transform="translate(12.3999 7.75)"/>
</clipPath>
</defs>
</svg>
